<svg width="20" height="20" viewBox="0 0 20 20" fill="none" xmlns="http://www.w3.org/2000/svg">
<path d="M19.9008 10C19.9008 15.4681 15.4681 19.9008 10 19.9008C4.53194 19.9008 0.0992008 15.4681 0.0992008 10C0.0992008 4.53194 4.53194 0.0992008 10 0.0992008C15.4681 0.0992008 19.9008 4.53194 19.9008 10Z" fill="#0A0A0A" stroke="#F7F7F7" stroke-width="0.198402"/>
<path d="M13.1076 4.60742H6.88938C5.17937 4.60742 3.78027 5.99421 3.78027 7.68918C3.78027 9.38414 5.17937 10.7709 6.88938 10.7709H13.1076V9.23005H6.88938C6.03438 9.23005 5.33483 8.53666 5.33483 7.68918C5.33483 6.84169 6.03438 6.1483 6.88938 6.1483H13.1076V4.60742Z" fill="#F7F7F7"/>
<path d="M6.88916 15.3935H13.1074C14.8174 15.3935 16.2165 14.0067 16.2165 12.3117C16.2165 10.6168 14.8174 9.22998 13.1074 9.22998H6.88916V10.7709H13.1074C13.9624 10.7709 14.6619 11.4643 14.6619 12.3117C14.6619 13.1592 13.9624 13.8526 13.1074 13.8526H6.88916V15.3935Z" fill="#F7F7F7"/>
<path d="M6.88938 15.3938C5.17937 15.3938 3.78027 14.007 3.78027 12.312H5.33483C5.33483 13.1595 6.03438 13.8529 6.88938 13.8529V15.3938Z" fill="#F7F7F7"/>
<path d="M13.1079 4.60742C14.8179 4.60742 16.217 5.99421 16.217 7.68918H14.6625C14.6625 6.84169 13.9629 6.1483 13.1079 6.1483V4.60742Z" fill="#F7F7F7"/>
<path d="M10.7765 2.30664H9.2251V4.61288H10.7765V2.30664Z" fill="#F7F7F7"/>
<path d="M10.7765 15.3877H9.2251V17.6939H10.7765V15.3877Z" fill="#F7F7F7"/>
</svg>
